{
  "accessors": [
    {
      "bufferView": 1,
      "componentType": 5126,
      "type": "VEC3",
      "count": 1443,
      "min": [-5, -4, 0],
      "max": [5, 6, 18]
    },
    {
      "bufferView": 1,
      "componentType": 5126,
      "type": "VEC3",
      "byteOffset": 12,
      "count": 1443
    },
    {
      "bufferView": 1,
      "componentType": 5126,
      "type": "VEC2",
      "byteOffset": 24,
      "count": 1443
    },
    {
      "bufferView": 2,
      "componentType": 5125,
      "type": "SCALAR",
      "count": 4608
    },
    {
      "bufferView": 3,
      "componentType": 5126,
      "type": "VEC3",
      "count": 2112,
      "min": [-11, -9, 9],
      "max": [2, 4, 23]
    },
    {
      "bufferView": 3,
      "componentType": 5126,
      "type": "VEC3",
      "byteOffset": 12,
      "count": 2112
    },
    {
      "bufferView": 3,
      "componentType": 5126,
      "type": "VEC2",
      "byteOffset": 24,
      "count": 2112
    },
    {
      "bufferView": 4,
      "componentType": 5125,
      "type": "SCALAR",
      "count": 5148
    },
    {
      "bufferView": 5,
      "componentType": 5126,
      "type": "VEC3",
      "count": 2112,
      "min": [-5, -2, 9],
      "max": [8, 11, 23]
    },
    {
      "bufferView": 5,
      "componentType": 5126,
      "type": "VEC3",
      "byteOffset": 12,
      "count": 2112
    },
    {
      "bufferView": 5,
      "componentType": 5126,
      "type": "VEC2",
      "byteOffset": 24,
      "count": 2112
    },
    {
      "bufferView": 6,
      "componentType": 5125,
      "type": "SCALAR",
      "count": 5148
    },
    {
      "bufferView": 7,
      "componentType": 5126,
      "type": "VEC3",
      "count": 4080,
      "min": [-11, -9, 9],
      "max": [9, 5, 26]
    },
    {
      "bufferView": 7,
      "componentType": 5126,
      "type": "VEC3",
      "byteOffset": 12,
      "count": 4080
    },
    {
      "bufferView": 7,
      "componentType": 5126,
      "type": "VEC2",
      "byteOffset": 24,
      "count": 4080
    },
    {
      "bufferView": 8,
      "componentType": 5125,
      "type": "SCALAR",
      "count": 9864
    }
  ],
  "asset": {
    "generator": "goxel",
    "version": "2.0"
  },
  "bufferViews": [
    {
      "buffer": 0,
      "byteLength": 203
    },
    {
      "buffer": 1,
      "byteLength": 57720,
      "byteStride": 40
    },
    {
      "buffer": 2,
      "byteLength": 18432
    },
    {
      "buffer": 3,
      "byteLength": 84480,
      "byteStride": 40
    },
    {
      "buffer": 4,
      "byteLength": 20592
    },
    {
      "buffer": 5,
      "byteLength": 84480,
      "byteStride": 40
    },
    {
      "buffer": 6,
      "byteLength": 20592
    },
    {
      "buffer": 7,
      "byteLength": 163200,
      "byteStride": 40
    },
    {
      "buffer": 8,
      "byteLength": 39456
    }
  ],
  "buffers": [
    {
      "uri": "data:application/octet-stream;base64,",
      "byteLength": 203
    },
    {
      "uri": "data:application/octet-stream;base64,",
      "byteLength": 57720
    },
    {
      "uri": "data:application/octet-stream;base64,",
      "byteLength": 18432
    },
    {
      "uri": "data:application/octet-stream;base64,",
      "byteLength": 84480
    },
    {
      "uri": "data:application/octet-stream;base64,",
      "byteLength": 20592
    },
    {
      "uri": "data:application/octet-stream;base64,",
      "byteLength": 84480
    },
    {
      "uri": "data:application/octet-stream;base64,",
      "byteLength": 20592
    },
    {
      "uri": "data:application/octet-stream;base64,",
      "byteLength": 163200
    },
    {
      "uri": "data:application/octet-stream;base64,",
      "byteLength": 39456
    }
  ],
  "images": [
    {
      "bufferView": 0,
      "mimeType": "image/png"
    }
  ],
  "meshes": [
    {
      "primitives": [
        {
          "indices": 3,
          "material": 0,
          "attributes": {
            "POSITION": 0,
            "NORMAL": 1,
            "TEXCOORD_0": 2
          }
        }
      ]
    },
    {
      "primitives": [
        {
          "indices": 7,
          "material": 0,
          "attributes": {
            "POSITION": 4,
            "NORMAL": 5,
            "TEXCOORD_0": 6
          }
        }
      ]
    },
    {
      "primitives": [
        {
          "indices": 11,
          "material": 0,
          "attributes": {
            "POSITION": 8,
            "NORMAL": 9,
            "TEXCOORD_0": 10
          }
        }
      ]
    },
    {
      "primitives": [
        {
          "indices": 15,
          "material": 0,
          "attributes": {
            "POSITION": 12,
            "NORMAL": 13,
            "TEXCOORD_0": 14
          }
        }
      ]
    }
  ],
  "materials": [
    {
      "name": "Material.1",
      "pbrMetallicRoughness": {
        "baseColorTexture": {
          "index": 0
        },
        "metallicFactor": 0.200000003,
        "roughnessFactor": 0.5
      }
    }
  ],
  "nodes": [
    {
      "children": [ 1, 2, 3, 4 ],
      "matrix": [1, 0, 0, 0, 0, 0, -1, 0, 0, 1, 0, 0, 0, 0, 0, 1]
    },
    {
      "mesh": 0,
      "name": "Layer.1"
    },
    {
      "mesh": 1,
      "name": "Layer.2"
    },
    {
      "mesh": 2,
      "name": "Layer.3"
    },
    {
      "mesh": 3,
      "name": "Layer.4"
    }
  ],
  "scenes": [
    {
      "nodes": [ 0 ]
    }
  ],
  "textures": [
    {
      "source": 0
    }
  ]
}
